<?xml version="1.0" encoding="utf-8" standalone="no"?>
<!DOCTYPE svg PUBLIC "-//W3C//DTD SVG 1.1//EN"
  "http://www.w3.org/Graphics/SVG/1.1/DTD/svg11.dtd">
<!-- Created with matplotlib (https://matplotlib.org/) -->
<svg height="518.36pt" version="1.1" viewBox="0 0 752.89625 518.36" width="752.89625pt" xmlns="http://www.w3.org/2000/svg" xmlns:xlink="http://www.w3.org/1999/xlink">
 <metadata>
  <rdf:RDF xmlns:cc="http://creativecommons.org/ns#" xmlns:dc="http://purl.org/dc/elements/1.1/" xmlns:rdf="http://www.w3.org/1999/02/22-rdf-syntax-ns#">
   <cc:Work>
    <dc:type rdf:resource="http://purl.org/dc/dcmitype/StillImage"/>
    <dc:date>2021-09-02T18:23:58.601901</dc:date>
    <dc:format>image/svg+xml</dc:format>
    <dc:creator>
     <cc:Agent>
      <dc:title>Matplotlib v3.3.2, https://matplotlib.org/</dc:title>
     </cc:Agent>
    </dc:creator>
   </cc:Work>
  </rdf:RDF>
 </metadata>
 <defs>
  <style type="text/css">*{stroke-linecap:butt;stroke-linejoin:round;}</style>
 </defs>
 <g id="figure_1">
  <g id="patch_1">
   <path d="M -0 518.36 
L 752.89625 518.36 
L 752.89625 0 
L -0 0 
z
" style="fill:#ffffff;"/>
  </g>
  <g id="axes_1">
   <g id="patch_2">
    <path d="M 76.09625 461.124375 
L 745.69625 461.124375 
L 745.69625 26.244375 
L 76.09625 26.244375 
z
" style="fill:#ffffff;"/>
   </g>
   <g id="matplotlib.axis_1">
    <g id="xtick_1">
     <g id="line2d_1">
      <path clip-path="url(#p366f8e2bd9)" d="M 106.532614 461.124375 
L 106.532614 26.244375 
" style="fill:none;stroke:#cccccc;stroke-linecap:round;"/>
     </g>
     <g id="line2d_2"/>
     <g id="text_1">
      <!-- 0.0 -->
      <g style="fill:#262626;" transform="translate(96.802614 478.27)scale(0.14 -0.14)">
       <defs>
        <path d="M 51.703125 34.421875 
Q 51.703125 24.515625 49.828125 17.75 
Q 47.953125 10.984375 44.703125 6.8125 
Q 41.453125 2.640625 37.0625 0.828125 
Q 32.671875 -0.984375 27.6875 -0.984375 
Q 22.65625 -0.984375 18.3125 0.828125 
Q 13.96875 2.640625 10.765625 6.78125 
Q 7.5625 10.9375 5.734375 17.703125 
Q 3.90625 24.46875 3.90625 34.421875 
Q 3.90625 44.828125 5.734375 51.640625 
Q 7.5625 58.453125 10.78125 62.5 
Q 14.015625 66.546875 18.40625 68.1875 
Q 22.796875 69.828125 27.984375 69.828125 
Q 32.90625 69.828125 37.21875 68.1875 
Q 41.546875 66.546875 44.765625 62.5 
Q 48 58.453125 49.84375 51.640625 
Q 51.703125 44.828125 51.703125 34.421875 
z
M 42.78125 34.421875 
Q 42.78125 42.625 41.796875 48.0625 
Q 40.828125 53.515625 38.921875 56.765625 
Q 37.015625 60.015625 34.25 61.359375 
Q 31.5 62.703125 27.984375 62.703125 
Q 24.265625 62.703125 21.4375 61.328125 
Q 18.609375 59.96875 16.671875 56.71875 
Q 14.75 53.46875 13.765625 48.015625 
Q 12.796875 42.578125 12.796875 34.421875 
Q 12.796875 26.515625 13.796875 21.09375 
Q 14.796875 15.671875 16.71875 12.375 
Q 18.65625 9.078125 21.4375 7.640625 
Q 24.21875 6.203125 27.78125 6.203125 
Q 31.25 6.203125 34.03125 7.640625 
Q 36.8125 9.078125 38.734375 12.375 
Q 40.671875 15.671875 41.71875 21.09375 
Q 42.78125 26.515625 42.78125 34.421875 
z
" id="LiberationSans-48"/>
        <path d="M 9.125 0 
L 9.125 10.6875 
L 18.65625 10.6875 
L 18.65625 0 
z
" id="LiberationSans-46"/>
       </defs>
       <use xlink:href="#LiberationSans-48"/>
       <use x="55.615234" xlink:href="#LiberationSans-46"/>
       <use x="83.398438" xlink:href="#LiberationSans-48"/>
      </g>
     </g>
    </g>
    <g id="xtick_2">
     <g id="line2d_3">
      <path clip-path="url(#p366f8e2bd9)" d="M 228.278068 461.124375 
L 228.278068 26.244375 
" style="fill:none;stroke:#cccccc;stroke-linecap:round;"/>
     </g>
     <g id="line2d_4"/>
     <g id="text_2">
      <!-- 0.2 -->
      <g style="fill:#262626;" transform="translate(218.548068 478.27)scale(0.14 -0.14)">
       <defs>
        <path d="M 5.03125 0 
L 5.03125 6.203125 
Q 7.515625 11.921875 11.109375 16.28125 
Q 14.703125 20.65625 18.65625 24.1875 
Q 22.609375 27.734375 26.484375 30.765625 
Q 30.375 33.796875 33.5 36.8125 
Q 36.625 39.84375 38.546875 43.15625 
Q 40.484375 46.484375 40.484375 50.6875 
Q 40.484375 53.609375 39.59375 55.828125 
Q 38.71875 58.0625 37.0625 59.5625 
Q 35.40625 61.078125 33.078125 61.828125 
Q 30.765625 62.59375 27.9375 62.59375 
Q 25.296875 62.59375 22.96875 61.859375 
Q 20.65625 61.140625 18.84375 59.671875 
Q 17.046875 58.203125 15.890625 56.03125 
Q 14.75 53.859375 14.40625 50.984375 
L 5.421875 51.8125 
Q 5.859375 55.515625 7.46875 58.78125 
Q 9.078125 62.0625 11.90625 64.53125 
Q 14.75 67 18.71875 68.40625 
Q 22.703125 69.828125 27.9375 69.828125 
Q 33.0625 69.828125 37.0625 68.609375 
Q 41.0625 67.390625 43.8125 64.984375 
Q 46.578125 62.59375 48.046875 59.078125 
Q 49.515625 55.5625 49.515625 50.984375 
Q 49.515625 47.515625 48.265625 44.390625 
Q 47.015625 41.265625 44.9375 38.421875 
Q 42.875 35.59375 40.140625 32.953125 
Q 37.40625 30.328125 34.421875 27.8125 
Q 31.453125 25.296875 28.421875 22.828125 
Q 25.390625 20.359375 22.71875 17.859375 
Q 20.0625 15.375 17.96875 12.8125 
Q 15.875 10.25 14.703125 7.46875 
L 50.59375 7.46875 
L 50.59375 0 
z
" id="LiberationSans-50"/>
       </defs>
       <use xlink:href="#LiberationSans-48"/>
       <use x="55.615234" xlink:href="#LiberationSans-46"/>
       <use x="83.398438" xlink:href="#LiberationSans-50"/>
      </g>
     </g>
    </g>
    <g id="xtick_3">
     <g id="line2d_5">
      <path clip-path="url(#p366f8e2bd9)" d="M 350.023523 461.124375 
L 350.023523 26.244375 
" style="fill:none;stroke:#cccccc;stroke-linecap:round;"/>
     </g>
     <g id="line2d_6"/>
     <g id="text_3">
      <!-- 0.4 -->
      <g style="fill:#262626;" transform="translate(340.293523 478.27)scale(0.14 -0.14)">
       <defs>
        <path d="M 43.015625 15.578125 
L 43.015625 0 
L 34.71875 0 
L 34.71875 15.578125 
L 2.296875 15.578125 
L 2.296875 22.40625 
L 33.796875 68.796875 
L 43.015625 68.796875 
L 43.015625 22.515625 
L 52.6875 22.515625 
L 52.6875 15.578125 
z
M 34.71875 58.890625 
Q 34.625 58.640625 34.234375 57.9375 
Q 33.84375 57.234375 33.34375 56.34375 
Q 32.859375 55.46875 32.34375 54.5625 
Q 31.84375 53.65625 31.453125 53.078125 
L 13.8125 27.09375 
Q 13.578125 26.703125 13.109375 26.0625 
Q 12.640625 25.4375 12.15625 24.78125 
Q 11.671875 24.125 11.171875 23.484375 
Q 10.6875 22.859375 10.40625 22.515625 
L 34.71875 22.515625 
z
" id="LiberationSans-52"/>
       </defs>
       <use xlink:href="#LiberationSans-48"/>
       <use x="55.615234" xlink:href="#LiberationSans-46"/>
       <use x="83.398438" xlink:href="#LiberationSans-52"/>
      </g>
     </g>
    </g>
    <g id="xtick_4">
     <g id="line2d_7">
      <path clip-path="url(#p366f8e2bd9)" d="M 471.768977 461.124375 
L 471.768977 26.244375 
" style="fill:none;stroke:#cccccc;stroke-linecap:round;"/>
     </g>
     <g id="line2d_8"/>
     <g id="text_4">
      <!-- 0.6 -->
      <g style="fill:#262626;" transform="translate(462.038977 478.27)scale(0.14 -0.14)">
       <defs>
        <path d="M 51.21875 22.515625 
Q 51.21875 17.328125 49.78125 13 
Q 48.34375 8.6875 45.53125 5.578125 
Q 42.71875 2.484375 38.5625 0.75 
Q 34.421875 -0.984375 29 -0.984375 
Q 23 -0.984375 18.5 1.3125 
Q 14.015625 3.609375 11.03125 7.921875 
Q 8.0625 12.25 6.5625 18.53125 
Q 5.078125 24.8125 5.078125 32.8125 
Q 5.078125 42 6.765625 48.921875 
Q 8.453125 55.859375 11.625 60.5 
Q 14.796875 65.140625 19.359375 67.484375 
Q 23.921875 69.828125 29.6875 69.828125 
Q 33.203125 69.828125 36.28125 69.09375 
Q 39.359375 68.359375 41.875 66.71875 
Q 44.390625 65.09375 46.28125 62.40625 
Q 48.1875 59.71875 49.3125 55.8125 
L 40.921875 54.296875 
Q 39.546875 58.734375 36.546875 60.71875 
Q 33.546875 62.703125 29.59375 62.703125 
Q 25.984375 62.703125 23.046875 60.984375 
Q 20.125 59.28125 18.0625 55.875 
Q 16.015625 52.484375 14.90625 47.359375 
Q 13.8125 42.234375 13.8125 35.40625 
Q 16.21875 39.84375 20.5625 42.15625 
Q 24.90625 44.484375 30.515625 44.484375 
Q 35.203125 44.484375 39.015625 42.96875 
Q 42.828125 41.453125 45.53125 38.59375 
Q 48.25 35.75 49.734375 31.671875 
Q 51.21875 27.59375 51.21875 22.515625 
z
M 42.28125 22.125 
Q 42.28125 25.6875 41.40625 28.5625 
Q 40.53125 31.453125 38.765625 33.46875 
Q 37.015625 35.5 34.421875 36.59375 
Q 31.84375 37.703125 28.421875 37.703125 
Q 26.03125 37.703125 23.578125 36.984375 
Q 21.140625 36.28125 19.15625 34.6875 
Q 17.1875 33.109375 15.9375 30.515625 
Q 14.703125 27.9375 14.703125 24.21875 
Q 14.703125 20.40625 15.671875 17.109375 
Q 16.65625 13.8125 18.484375 11.375 
Q 20.3125 8.9375 22.890625 7.515625 
Q 25.484375 6.109375 28.71875 6.109375 
Q 31.890625 6.109375 34.40625 7.203125 
Q 36.921875 8.296875 38.671875 10.375 
Q 40.4375 12.453125 41.359375 15.421875 
Q 42.28125 18.40625 42.28125 22.125 
z
" id="LiberationSans-54"/>
       </defs>
       <use xlink:href="#LiberationSans-48"/>
       <use x="55.615234" xlink:href="#LiberationSans-46"/>
       <use x="83.398438" xlink:href="#LiberationSans-54"/>
      </g>
     </g>
    </g>
    <g id="xtick_5">
     <g id="line2d_9">
      <path clip-path="url(#p366f8e2bd9)" d="M 593.514432 461.124375 
L 593.514432 26.244375 
" style="fill:none;stroke:#cccccc;stroke-linecap:round;"/>
     </g>
     <g id="line2d_10"/>
     <g id="text_5">
      <!-- 0.8 -->
      <g style="fill:#262626;" transform="translate(583.784432 478.27)scale(0.14 -0.14)">
       <defs>
        <path d="M 51.265625 19.1875 
Q 51.265625 14.796875 49.875 11.109375 
Q 48.484375 7.421875 45.625 4.734375 
Q 42.78125 2.046875 38.328125 0.53125 
Q 33.890625 -0.984375 27.828125 -0.984375 
Q 21.78125 -0.984375 17.359375 0.53125 
Q 12.9375 2.046875 10.03125 4.703125 
Q 7.125 7.375 5.734375 11.0625 
Q 4.34375 14.75 4.34375 19.09375 
Q 4.34375 22.859375 5.484375 25.78125 
Q 6.640625 28.71875 8.5625 30.828125 
Q 10.5 32.953125 12.96875 34.25 
Q 15.4375 35.546875 18.0625 35.984375 
L 18.0625 36.1875 
Q 15.1875 36.859375 12.90625 38.375 
Q 10.640625 39.890625 9.09375 42.015625 
Q 7.5625 44.140625 6.75 46.71875 
Q 5.953125 49.3125 5.953125 52.203125 
Q 5.953125 55.8125 7.34375 59 
Q 8.734375 62.203125 11.46875 64.625 
Q 14.203125 67.046875 18.25 68.4375 
Q 22.3125 69.828125 27.640625 69.828125 
Q 33.25 69.828125 37.375 68.40625 
Q 41.5 67 44.203125 64.578125 
Q 46.921875 62.15625 48.234375 58.9375 
Q 49.5625 55.71875 49.5625 52.09375 
Q 49.5625 49.265625 48.75 46.671875 
Q 47.953125 44.09375 46.40625 41.96875 
Q 44.875 39.84375 42.59375 38.34375 
Q 40.328125 36.859375 37.359375 36.28125 
L 37.359375 36.078125 
Q 40.328125 35.59375 42.859375 34.296875 
Q 45.40625 33.015625 47.265625 30.890625 
Q 49.125 28.765625 50.1875 25.828125 
Q 51.265625 22.90625 51.265625 19.1875 
z
M 40.4375 51.609375 
Q 40.4375 54.203125 39.765625 56.34375 
Q 39.109375 58.5 37.59375 60.03125 
Q 36.078125 61.578125 33.640625 62.421875 
Q 31.203125 63.28125 27.640625 63.28125 
Q 24.171875 63.28125 21.78125 62.421875 
Q 19.390625 61.578125 17.84375 60.03125 
Q 16.3125 58.5 15.625 56.34375 
Q 14.9375 54.203125 14.9375 51.609375 
Q 14.9375 49.5625 15.46875 47.40625 
Q 16.015625 45.265625 17.421875 43.5 
Q 18.84375 41.75 21.328125 40.625 
Q 23.828125 39.5 27.734375 39.5 
Q 31.890625 39.5 34.40625 40.625 
Q 36.921875 41.75 38.25 43.5 
Q 39.59375 45.265625 40.015625 47.40625 
Q 40.4375 49.5625 40.4375 51.609375 
z
M 42.140625 20.015625 
Q 42.140625 22.515625 41.453125 24.828125 
Q 40.765625 27.15625 39.109375 28.9375 
Q 37.453125 30.71875 34.640625 31.8125 
Q 31.84375 32.90625 27.640625 32.90625 
Q 23.78125 32.90625 21.0625 31.8125 
Q 18.359375 30.71875 16.671875 28.90625 
Q 14.984375 27.09375 14.203125 24.71875 
Q 13.421875 22.359375 13.421875 19.828125 
Q 13.421875 16.65625 14.203125 14.03125 
Q 14.984375 11.421875 16.6875 9.546875 
Q 18.40625 7.671875 21.1875 6.640625 
Q 23.96875 5.609375 27.9375 5.609375 
Q 31.9375 5.609375 34.671875 6.640625 
Q 37.40625 7.671875 39.0625 9.546875 
Q 40.71875 11.421875 41.421875 14.078125 
Q 42.140625 16.75 42.140625 20.015625 
z
" id="LiberationSans-56"/>
       </defs>
       <use xlink:href="#LiberationSans-48"/>
       <use x="55.615234" xlink:href="#LiberationSans-46"/>
       <use x="83.398438" xlink:href="#LiberationSans-56"/>
      </g>
     </g>
    </g>
    <g id="xtick_6">
     <g id="line2d_11">
      <path clip-path="url(#p366f8e2bd9)" d="M 715.259886 461.124375 
L 715.259886 26.244375 
" style="fill:none;stroke:#cccccc;stroke-linecap:round;"/>
     </g>
     <g id="line2d_12"/>
     <g id="text_6">
      <!-- 1.0 -->
      <g style="fill:#262626;" transform="translate(705.529886 478.27)scale(0.14 -0.14)">
       <defs>
        <path d="M 7.625 0 
L 7.625 7.46875 
L 25.140625 7.46875 
L 25.140625 60.40625 
L 9.625 49.3125 
L 9.625 57.625 
L 25.875 68.796875 
L 33.984375 68.796875 
L 33.984375 7.46875 
L 50.734375 7.46875 
L 50.734375 0 
z
" id="LiberationSans-49"/>
       </defs>
       <use xlink:href="#LiberationSans-49"/>
       <use x="55.615234" xlink:href="#LiberationSans-46"/>
       <use x="83.398438" xlink:href="#LiberationSans-48"/>
      </g>
     </g>
    </g>
    <g id="text_7">
     <!-- Percentage of Customers -->
     <g style="fill:#262626;" transform="translate(313.98375 507.77)scale(0.16 -0.16)">
      <defs>
       <path d="M 63.28125 47.015625 
Q 63.28125 42.578125 61.78125 38.453125 
Q 60.296875 34.328125 57.21875 31.15625 
Q 54.15625 27.984375 49.40625 26.09375 
Q 44.671875 24.21875 38.1875 24.21875 
L 21.09375 24.21875 
L 21.09375 0 
L 6.6875 0 
L 6.6875 68.796875 
L 37.59375 68.796875 
Q 44.1875 68.796875 49.015625 67.203125 
Q 53.859375 65.625 57.03125 62.734375 
Q 60.203125 59.859375 61.734375 55.859375 
Q 63.28125 51.859375 63.28125 47.015625 
z
M 48.78125 46.78125 
Q 48.78125 52.09375 45.578125 54.859375 
Q 42.390625 57.625 35.984375 57.625 
L 21.09375 57.625 
L 21.09375 35.296875 
L 36.375 35.296875 
Q 39.59375 35.296875 41.90625 36.125 
Q 44.234375 36.96875 45.765625 38.46875 
Q 47.3125 39.984375 48.046875 42.109375 
Q 48.78125 44.234375 48.78125 46.78125 
z
" id="LiberationSans-Bold-80"/>
       <path d="M 28.609375 -0.984375 
Q 22.90625 -0.984375 18.328125 0.703125 
Q 13.765625 2.390625 10.546875 5.828125 
Q 7.328125 9.28125 5.609375 14.46875 
Q 3.90625 19.671875 3.90625 26.65625 
Q 3.90625 34.234375 5.921875 39.40625 
Q 7.953125 44.578125 11.390625 47.78125 
Q 14.84375 50.984375 19.328125 52.390625 
Q 23.828125 53.8125 28.8125 53.8125 
Q 35.0625 53.8125 39.46875 51.640625 
Q 43.890625 49.46875 46.71875 45.5625 
Q 49.5625 41.65625 50.875 36.203125 
Q 52.203125 30.765625 52.203125 24.171875 
L 52.203125 23.78125 
L 18.3125 23.78125 
Q 18.3125 20.453125 18.890625 17.59375 
Q 19.484375 14.75 20.796875 12.671875 
Q 22.125 10.59375 24.21875 9.390625 
Q 26.3125 8.203125 29.296875 8.203125 
Q 32.90625 8.203125 35.203125 9.734375 
Q 37.5 11.28125 38.484375 14.5 
L 51.421875 13.375 
Q 50.53125 11.140625 48.9375 8.59375 
Q 47.359375 6.0625 44.71875 3.9375 
Q 42.09375 1.8125 38.15625 0.40625 
Q 34.234375 -0.984375 28.609375 -0.984375 
z
M 28.609375 45.171875 
Q 26.515625 45.171875 24.6875 44.453125 
Q 22.859375 43.75 21.515625 42.203125 
Q 20.171875 40.671875 19.328125 38.234375 
Q 18.5 35.796875 18.40625 32.375 
L 38.921875 32.375 
Q 38.53125 38.765625 35.84375 41.96875 
Q 33.15625 45.171875 28.609375 45.171875 
z
" id="LiberationSans-Bold-101"/>
       <path d="M 6.984375 0 
L 6.984375 40.4375 
Q 6.984375 42.140625 6.953125 44.046875 
Q 6.9375 45.953125 6.859375 47.6875 
Q 6.78125 49.421875 6.734375 50.8125 
Q 6.6875 52.203125 6.59375 52.828125 
L 19.671875 52.828125 
Q 19.78125 52.25 19.875 50.796875 
Q 19.96875 49.359375 20.0625 47.65625 
Q 20.171875 45.953125 20.234375 44.265625 
Q 20.3125 42.578125 20.3125 41.546875 
L 20.515625 41.546875 
Q 21.53125 44.4375 22.546875 46.703125 
Q 23.578125 48.96875 24.96875 50.5625 
Q 26.375 52.15625 28.328125 53 
Q 30.28125 53.859375 33.15625 53.859375 
Q 34.375 53.859375 35.5625 53.640625 
Q 36.765625 53.421875 37.40625 53.125 
L 37.40625 41.65625 
Q 36.078125 41.9375 34.734375 42.15625 
Q 33.40625 42.390625 31.546875 42.390625 
Q 26.421875 42.390625 23.5625 38.234375 
Q 20.703125 34.078125 20.703125 25.921875 
L 20.703125 0 
z
" id="LiberationSans-Bold-114"/>
       <path d="M 29 -0.984375 
Q 22.703125 -0.984375 17.984375 0.96875 
Q 13.28125 2.9375 10.15625 6.5 
Q 7.03125 10.0625 5.46875 15.0625 
Q 3.90625 20.0625 3.90625 26.125 
Q 3.90625 32.71875 5.609375 37.859375 
Q 7.328125 43.015625 10.546875 46.546875 
Q 13.765625 50.09375 18.46875 51.953125 
Q 23.1875 53.8125 29.203125 53.8125 
Q 34.328125 53.8125 38.296875 52.4375 
Q 42.28125 51.078125 45.15625 48.703125 
Q 48.046875 46.34375 49.828125 43.109375 
Q 51.609375 39.890625 52.296875 36.1875 
L 38.484375 35.5 
Q 37.890625 39.546875 35.546875 41.96875 
Q 33.203125 44.390625 28.90625 44.390625 
Q 23.390625 44.390625 20.84375 39.84375 
Q 18.3125 35.296875 18.3125 26.65625 
Q 18.3125 8.40625 29.109375 8.40625 
Q 33.015625 8.40625 35.640625 10.859375 
Q 38.28125 13.328125 38.921875 18.21875 
L 52.6875 17.578125 
Q 52.203125 13.921875 50.46875 10.578125 
Q 48.734375 7.234375 45.78125 4.65625 
Q 42.828125 2.09375 38.625 0.546875 
Q 34.421875 -0.984375 29 -0.984375 
z
" id="LiberationSans-Bold-99"/>
       <path d="M 41.21875 0 
L 41.21875 29.640625 
Q 41.21875 32.71875 40.71875 35.28125 
Q 40.234375 37.84375 39.109375 39.671875 
Q 37.984375 41.5 36.171875 42.53125 
Q 34.375 43.5625 31.78125 43.5625 
Q 29.296875 43.5625 27.265625 42.453125 
Q 25.25 41.359375 23.78125 39.328125 
Q 22.3125 37.3125 21.5 34.5 
Q 20.703125 31.6875 20.703125 28.328125 
L 20.703125 0 
L 6.984375 0 
L 6.984375 41.015625 
Q 6.984375 42.71875 6.953125 44.53125 
Q 6.9375 46.34375 6.859375 47.96875 
Q 6.78125 49.609375 6.734375 50.90625 
Q 6.6875 52.203125 6.59375 52.828125 
L 19.671875 52.828125 
Q 19.78125 52.25 19.875 50.953125 
Q 19.96875 49.65625 20.0625 48.09375 
Q 20.171875 46.53125 20.234375 44.96875 
Q 20.3125 43.40625 20.3125 42.328125 
L 20.515625 42.328125 
Q 23.296875 48.390625 27.484375 51.125 
Q 31.6875 53.859375 37.5 53.859375 
Q 42.28125 53.859375 45.578125 52.296875 
Q 48.875 50.734375 50.953125 48 
Q 53.03125 45.265625 53.953125 41.546875 
Q 54.890625 37.84375 54.890625 33.546875 
L 54.890625 0 
z
" id="LiberationSans-Bold-110"/>
       <path d="M 20.515625 -0.875 
Q 14.453125 -0.875 11.171875 2.421875 
Q 7.90625 5.71875 7.90625 12.40625 
L 7.90625 43.5625 
L 1.21875 43.5625 
L 1.21875 52.828125 
L 8.59375 52.828125 
L 12.890625 65.234375 
L 21.484375 65.234375 
L 21.484375 52.828125 
L 31.5 52.828125 
L 31.5 43.5625 
L 21.484375 43.5625 
L 21.484375 16.109375 
Q 21.484375 12.25 22.953125 10.421875 
Q 24.421875 8.59375 27.484375 8.59375 
Q 28.765625 8.59375 29.78125 8.78125 
Q 30.8125 8.984375 32.078125 9.28125 
L 32.078125 0.78125 
Q 29.546875 -0.046875 26.703125 -0.453125 
Q 23.875 -0.875 20.515625 -0.875 
z
" id="LiberationSans-Bold-116"/>
       <path d="M 19.1875 -0.984375 
Q 15.375 -0.984375 12.375 0.0625 
Q 9.375 1.125 7.265625 3.140625 
Q 5.171875 5.171875 4.046875 8.15625 
Q 2.9375 11.140625 2.9375 14.9375 
Q 2.9375 19.625 4.5625 22.828125 
Q 6.203125 26.03125 9.03125 28 
Q 11.859375 29.984375 15.671875 30.875 
Q 19.484375 31.78125 23.78125 31.84375 
L 35.15625 32.03125 
L 35.15625 34.71875 
Q 35.15625 37.59375 34.640625 39.515625 
Q 34.125 41.453125 33.140625 42.671875 
Q 32.171875 43.890625 30.734375 44.40625 
Q 29.296875 44.921875 27.4375 44.921875 
Q 25.734375 44.921875 24.390625 44.578125 
Q 23.046875 44.234375 22.0625 43.375 
Q 21.09375 42.53125 20.484375 41.09375 
Q 19.875 39.65625 19.625 37.453125 
L 5.328125 38.140625 
Q 5.90625 41.609375 7.46875 44.453125 
Q 9.03125 47.3125 11.78125 49.40625 
Q 14.546875 51.515625 18.578125 52.65625 
Q 22.609375 53.8125 28.03125 53.8125 
Q 32.953125 53.8125 36.8125 52.59375 
Q 40.671875 51.375 43.359375 48.953125 
Q 46.046875 46.53125 47.453125 43.015625 
Q 48.875 39.5 48.875 34.859375 
L 48.875 15.625 
Q 48.875 13.765625 49.046875 12.296875 
Q 49.21875 10.84375 49.671875 9.84375 
Q 50.140625 8.84375 51 8.328125 
Q 51.859375 7.8125 53.21875 7.8125 
Q 54.78125 7.8125 56.25 8.109375 
L 56.25 0.6875 
Q 55.03125 0.390625 54.046875 0.140625 
Q 53.078125 -0.09375 52.09375 -0.234375 
Q 51.125 -0.390625 50.015625 -0.484375 
Q 48.921875 -0.59375 47.46875 -0.59375 
Q 42.28125 -0.59375 39.8125 1.953125 
Q 37.359375 4.5 36.859375 9.421875 
L 36.578125 9.421875 
Q 33.84375 4.5 29.5625 1.75 
Q 25.296875 -0.984375 19.1875 -0.984375 
z
M 35.15625 24.46875 
L 28.125 24.359375 
Q 25.921875 24.265625 23.9375 24 
Q 21.96875 23.734375 20.484375 22.875 
Q 19 22.015625 18.109375 20.40625 
Q 17.234375 18.796875 17.234375 16.015625 
Q 17.234375 12.25 18.96875 10.421875 
Q 20.703125 8.59375 23.578125 8.59375 
Q 26.21875 8.59375 28.359375 9.71875 
Q 30.515625 10.84375 32 12.671875 
Q 33.5 14.5 34.328125 16.890625 
Q 35.15625 19.28125 35.15625 21.78125 
z
" id="LiberationSans-Bold-97"/>
       <path d="M 29.109375 -21.1875 
Q 23.875 -21.1875 19.890625 -20.140625 
Q 15.921875 -19.09375 13.109375 -17.203125 
Q 10.296875 -15.328125 8.609375 -12.71875 
Q 6.9375 -10.109375 6.296875 -6.984375 
L 20.015625 -5.375 
Q 20.75 -8.546875 23.171875 -10.34375 
Q 25.59375 -12.15625 29.5 -12.15625 
Q 31.9375 -12.15625 33.953125 -11.46875 
Q 35.984375 -10.796875 37.421875 -9.15625 
Q 38.875 -7.515625 39.671875 -4.828125 
Q 40.484375 -2.15625 40.484375 1.8125 
Q 40.484375 3.171875 40.484375 4.578125 
Q 40.484375 6 40.53125 7.171875 
Q 40.578125 8.546875 40.578125 9.8125 
L 40.484375 9.8125 
Q 38.09375 4.6875 33.765625 2.390625 
Q 29.4375 0.09375 23.484375 0.09375 
Q 18.453125 0.09375 14.8125 2.0625 
Q 11.1875 4.046875 8.78125 7.59375 
Q 6.390625 11.140625 5.25 16.046875 
Q 4.109375 20.953125 4.109375 26.859375 
Q 4.109375 32.953125 5.328125 37.90625 
Q 6.546875 42.875 9.0625 46.4375 
Q 11.578125 50 15.40625 51.921875 
Q 19.234375 53.859375 24.515625 53.859375 
Q 29.78125 53.859375 33.953125 51.609375 
Q 38.140625 49.359375 40.484375 44.34375 
L 40.71875 44.34375 
Q 40.71875 45.359375 40.796875 46.703125 
Q 40.875 48.046875 40.96875 49.28125 
Q 41.0625 50.53125 41.1875 51.5 
Q 41.3125 52.484375 41.40625 52.828125 
L 54.390625 52.828125 
Q 54.296875 51.078125 54.203125 47.90625 
Q 54.109375 44.734375 54.109375 40.625 
L 54.109375 1.609375 
Q 54.109375 -4.15625 52.4375 -8.421875 
Q 50.78125 -12.703125 47.578125 -15.53125 
Q 44.390625 -18.359375 39.71875 -19.765625 
Q 35.0625 -21.1875 29.109375 -21.1875 
z
M 40.578125 27.15625 
Q 40.578125 32.125 39.59375 35.4375 
Q 38.625 38.765625 37.0625 40.765625 
Q 35.5 42.78125 33.46875 43.609375 
Q 31.453125 44.4375 29.390625 44.4375 
Q 26.765625 44.4375 24.734375 43.40625 
Q 22.703125 42.390625 21.28125 40.234375 
Q 19.875 38.09375 19.140625 34.765625 
Q 18.40625 31.453125 18.40625 26.859375 
Q 18.40625 18.3125 21.140625 13.96875 
Q 23.875 9.625 29.296875 9.625 
Q 31.34375 9.625 33.375 10.421875 
Q 35.40625 11.234375 37.015625 13.25 
Q 38.625 15.28125 39.59375 18.640625 
Q 40.578125 22.015625 40.578125 27.15625 
z
" id="LiberationSans-Bold-103"/>
       <path id="LiberationSans-Bold-32"/>
       <path d="M 57.171875 26.46875 
Q 57.171875 20.40625 55.484375 15.375 
Q 53.8125 10.359375 50.4375 6.71875 
Q 47.078125 3.078125 42.046875 1.046875 
Q 37.015625 -0.984375 30.328125 -0.984375 
Q 23.875 -0.984375 18.9375 1.015625 
Q 14.015625 3.03125 10.671875 6.640625 
Q 7.328125 10.25 5.609375 15.296875 
Q 3.90625 20.359375 3.90625 26.46875 
Q 3.90625 32.375 5.53125 37.375 
Q 7.171875 42.390625 10.484375 46.046875 
Q 13.8125 49.703125 18.84375 51.75 
Q 23.875 53.8125 30.609375 53.8125 
Q 37.75 53.8125 42.765625 51.75 
Q 47.796875 49.703125 51 46.0625 
Q 54.203125 42.4375 55.6875 37.421875 
Q 57.171875 32.421875 57.171875 26.46875 
z
M 42.828125 26.46875 
Q 42.828125 35.890625 39.75 40.140625 
Q 36.671875 44.390625 30.8125 44.390625 
Q 24.75 44.390625 21.53125 40.09375 
Q 18.3125 35.796875 18.3125 26.46875 
Q 18.3125 21.734375 19.15625 18.3125 
Q 20.015625 14.890625 21.578125 12.6875 
Q 23.140625 10.5 25.34375 9.453125 
Q 27.546875 8.40625 30.171875 8.40625 
Q 33.203125 8.40625 35.5625 9.453125 
Q 37.9375 10.5 39.546875 12.6875 
Q 41.15625 14.890625 41.984375 18.3125 
Q 42.828125 21.734375 42.828125 26.46875 
z
" id="LiberationSans-Bold-111"/>
       <path d="M 23.09375 43.5625 
L 23.09375 0 
L 9.421875 0 
L 9.421875 43.5625 
L 1.703125 43.5625 
L 1.703125 52.828125 
L 9.421875 52.828125 
L 9.421875 58.34375 
Q 9.421875 61.375 10.15625 63.9375 
Q 10.890625 66.5 12.640625 68.40625 
Q 14.40625 70.3125 17.375 71.390625 
Q 20.359375 72.46875 24.8125 72.46875 
Q 27.15625 72.46875 29.421875 72.21875 
Q 31.6875 71.96875 33.5 71.6875 
L 33.5 62.84375 
Q 32.625 63.03125 31.515625 63.15625 
Q 30.421875 63.28125 29.5 63.28125 
Q 27.59375 63.28125 26.34375 62.890625 
Q 25.09375 62.5 24.390625 61.71875 
Q 23.6875 60.9375 23.390625 59.734375 
Q 23.09375 58.546875 23.09375 56.984375 
L 23.09375 52.828125 
L 33.5 52.828125 
L 33.5 43.5625 
z
" id="LiberationSans-Bold-102"/>
       <path d="M 38.8125 10.359375 
Q 42.875 10.359375 45.828125 11.5 
Q 48.78125 12.640625 50.953125 14.5 
Q 53.125 16.359375 54.5625 18.703125 
Q 56 21.046875 56.9375 23.4375 
L 69.484375 18.703125 
Q 67.96875 14.984375 65.53125 11.421875 
Q 63.09375 7.859375 59.421875 5.125 
Q 55.765625 2.390625 50.703125 0.703125 
Q 45.65625 -0.984375 38.8125 -0.984375 
Q 29.890625 -0.984375 23.34375 1.671875 
Q 16.796875 4.34375 12.515625 9.109375 
Q 8.25 13.875 6.171875 20.40625 
Q 4.109375 26.953125 4.109375 34.71875 
Q 4.109375 42.78125 6.171875 49.265625 
Q 8.25 55.765625 12.453125 60.328125 
Q 16.65625 64.890625 23.078125 67.359375 
Q 29.5 69.828125 38.1875 69.828125 
Q 44.921875 69.828125 49.96875 68.40625 
Q 55.03125 67 58.71875 64.421875 
Q 62.40625 61.859375 64.8125 58.375 
Q 67.234375 54.890625 68.609375 50.6875 
L 55.90625 47.21875 
Q 55.21875 49.421875 53.796875 51.4375 
Q 52.390625 53.46875 50.21875 55.03125 
Q 48.046875 56.59375 45.109375 57.546875 
Q 42.1875 58.5 38.484375 58.5 
Q 33.25 58.5 29.484375 56.8125 
Q 25.734375 55.125 23.3125 52 
Q 20.90625 48.875 19.75 44.5 
Q 18.609375 40.140625 18.609375 34.71875 
Q 18.609375 29.34375 19.75 24.875 
Q 20.90625 20.40625 23.34375 17.1875 
Q 25.78125 13.96875 29.609375 12.15625 
Q 33.453125 10.359375 38.8125 10.359375 
z
" id="LiberationSans-Bold-67"/>
       <path d="M 19.921875 52.828125 
L 19.921875 23.1875 
Q 19.921875 20.125 20.40625 17.546875 
Q 20.90625 14.984375 22.015625 13.15625 
Q 23.140625 11.328125 24.921875 10.296875 
Q 26.703125 9.28125 29.296875 9.28125 
Q 31.78125 9.28125 33.8125 10.375 
Q 35.84375 11.46875 37.296875 13.5 
Q 38.765625 15.53125 39.5625 18.328125 
Q 40.375 21.140625 40.375 24.515625 
L 40.375 52.828125 
L 54.109375 52.828125 
L 54.109375 11.8125 
Q 54.109375 10.15625 54.125 8.328125 
Q 54.15625 6.5 54.21875 4.859375 
Q 54.296875 3.21875 54.359375 1.921875 
Q 54.4375 0.640625 54.5 0 
L 41.40625 0 
Q 41.359375 0.59375 41.234375 1.875 
Q 41.109375 3.171875 41.03125 4.734375 
Q 40.96875 6.296875 40.890625 7.859375 
Q 40.828125 9.421875 40.828125 10.5 
L 40.578125 10.5 
Q 37.84375 4.5 33.609375 1.75 
Q 29.390625 -0.984375 23.578125 -0.984375 
Q 18.84375 -0.984375 15.515625 0.578125 
Q 12.203125 2.15625 10.125 4.859375 
Q 8.0625 7.5625 7.125 11.265625 
Q 6.203125 14.984375 6.203125 19.28125 
L 6.203125 52.828125 
z
" id="LiberationSans-Bold-117"/>
       <path d="M 51.515625 15.4375 
Q 51.515625 11.625 49.921875 8.59375 
Q 48.34375 5.5625 45.3125 3.4375 
Q 42.28125 1.3125 37.890625 0.15625 
Q 33.5 -0.984375 27.875 -0.984375 
Q 22.859375 -0.984375 18.796875 -0.25 
Q 14.75 0.484375 11.6875 2.171875 
Q 8.640625 3.859375 6.59375 6.546875 
Q 4.546875 9.234375 3.515625 13.1875 
L 15.578125 14.984375 
Q 16.15625 12.796875 17.1875 11.421875 
Q 18.21875 10.0625 19.71875 9.328125 
Q 21.234375 8.59375 23.265625 8.34375 
Q 25.296875 8.109375 27.875 8.109375 
Q 30.21875 8.109375 32.25 8.375 
Q 34.28125 8.640625 35.765625 9.296875 
Q 37.25 9.96875 38.078125 11.15625 
Q 38.921875 12.359375 38.921875 14.15625 
Q 38.921875 16.21875 37.71875 17.40625 
Q 36.53125 18.609375 34.453125 19.359375 
Q 32.375 20.125 29.5625 20.671875 
Q 26.765625 21.234375 23.578125 21.96875 
Q 20.265625 22.703125 17.03125 23.71875 
Q 13.8125 24.75 11.265625 26.5 
Q 8.734375 28.265625 7.171875 30.96875 
Q 5.609375 33.6875 5.609375 37.84375 
Q 5.609375 41.609375 7.078125 44.5625 
Q 8.546875 47.515625 11.375 49.578125 
Q 14.203125 51.65625 18.375 52.75 
Q 22.5625 53.859375 27.984375 53.859375 
Q 32.28125 53.859375 35.984375 53.046875 
Q 39.703125 52.25 42.625 50.515625 
Q 45.5625 48.78125 47.53125 46.09375 
Q 49.515625 43.40625 50.296875 39.59375 
L 38.140625 38.328125 
Q 37.796875 40.234375 36.90625 41.46875 
Q 36.03125 42.71875 34.734375 43.453125 
Q 33.453125 44.1875 31.734375 44.453125 
Q 30.03125 44.734375 27.984375 44.734375 
Q 23.09375 44.734375 20.65625 43.484375 
Q 18.21875 42.234375 18.21875 39.3125 
Q 18.21875 37.5 19.21875 36.421875 
Q 20.21875 35.359375 22.046875 34.640625 
Q 23.875 33.9375 26.390625 33.421875 
Q 28.90625 32.90625 31.890625 32.171875 
Q 35.546875 31.390625 39.078125 30.34375 
Q 42.625 29.296875 45.375 27.46875 
Q 48.140625 25.640625 49.828125 22.75 
Q 51.515625 19.875 51.515625 15.4375 
z
" id="LiberationSans-Bold-115"/>
       <path d="M 38.09375 0 
L 38.09375 29.640625 
Q 38.09375 32.71875 37.671875 35.28125 
Q 37.25 37.84375 36.296875 39.671875 
Q 35.359375 41.5 33.8125 42.53125 
Q 32.28125 43.5625 30.078125 43.5625 
Q 27.984375 43.5625 26.265625 42.453125 
Q 24.5625 41.359375 23.3125 39.328125 
Q 22.078125 37.3125 21.390625 34.5 
Q 20.703125 31.6875 20.703125 28.328125 
L 20.703125 0 
L 6.984375 0 
L 6.984375 41.015625 
Q 6.984375 42.71875 6.953125 44.53125 
Q 6.9375 46.34375 6.859375 47.96875 
Q 6.78125 49.609375 6.734375 50.90625 
Q 6.6875 52.203125 6.59375 52.828125 
L 19.671875 52.828125 
Q 19.78125 52.25 19.875 50.953125 
Q 19.96875 49.65625 20.0625 48.09375 
Q 20.171875 46.53125 20.234375 44.96875 
Q 20.3125 43.40625 20.3125 42.328125 
L 20.515625 42.328125 
Q 23.046875 48.390625 26.828125 51.125 
Q 30.609375 53.859375 35.890625 53.859375 
Q 41.9375 53.859375 45.625 50.90625 
Q 49.3125 47.953125 50.59375 42.328125 
L 50.875 42.328125 
Q 52.296875 45.609375 53.921875 47.796875 
Q 55.5625 50 57.53125 51.34375 
Q 59.515625 52.6875 61.828125 53.265625 
Q 64.15625 53.859375 66.890625 53.859375 
Q 71.234375 53.859375 74.234375 52.296875 
Q 77.25 50.734375 79.125 48 
Q 81 45.265625 81.859375 41.546875 
Q 82.71875 37.84375 82.71875 33.546875 
L 82.71875 0 
L 69.09375 0 
L 69.09375 29.640625 
Q 69.09375 32.71875 68.671875 35.28125 
Q 68.265625 37.84375 67.3125 39.671875 
Q 66.359375 41.5 64.8125 42.53125 
Q 63.28125 43.5625 61.078125 43.5625 
Q 59.03125 43.5625 57.34375 42.5 
Q 55.671875 41.453125 54.421875 39.515625 
Q 53.171875 37.59375 52.484375 34.90625 
Q 51.8125 32.234375 51.703125 28.953125 
L 51.703125 0 
z
" id="LiberationSans-Bold-109"/>
      </defs>
      <use xlink:href="#LiberationSans-Bold-80"/>
      <use x="66.699219" xlink:href="#LiberationSans-Bold-101"/>
      <use x="122.314453" xlink:href="#LiberationSans-Bold-114"/>
      <use x="161.230469" xlink:href="#LiberationSans-Bold-99"/>
      <use x="216.845703" xlink:href="#LiberationSans-Bold-101"/>
      <use x="272.460938" xlink:href="#LiberationSans-Bold-110"/>
      <use x="333.544922" xlink:href="#LiberationSans-Bold-116"/>
      <use x="366.845703" xlink:href="#LiberationSans-Bold-97"/>
      <use x="422.460938" xlink:href="#LiberationSans-Bold-103"/>
      <use x="483.544922" xlink:href="#LiberationSans-Bold-101"/>
      <use x="539.160156" xlink:href="#LiberationSans-Bold-32"/>
      <use x="566.943359" xlink:href="#LiberationSans-Bold-111"/>
      <use x="628.027344" xlink:href="#LiberationSans-Bold-102"/>
      <use x="661.328125" xlink:href="#LiberationSans-Bold-32"/>
      <use x="689.111328" xlink:href="#LiberationSans-Bold-67"/>
      <use x="761.328125" xlink:href="#LiberationSans-Bold-117"/>
      <use x="822.412109" xlink:href="#LiberationSans-Bold-115"/>
      <use x="878.027344" xlink:href="#LiberationSans-Bold-116"/>
      <use x="911.328125" xlink:href="#LiberationSans-Bold-111"/>
      <use x="972.412109" xlink:href="#LiberationSans-Bold-109"/>
      <use x="1061.328125" xlink:href="#LiberationSans-Bold-101"/>
      <use x="1116.943359" xlink:href="#LiberationSans-Bold-114"/>
      <use x="1155.859375" xlink:href="#LiberationSans-Bold-115"/>
     </g>
    </g>
   </g>
   <g id="matplotlib.axis_2">
    <g id="ytick_1">
     <g id="line2d_13">
      <path clip-path="url(#p366f8e2bd9)" d="M 76.09625 441.357102 
L 745.69625 441.357102 
" style="fill:none;stroke:#cccccc;stroke-linecap:round;"/>
     </g>
     <g id="line2d_14"/>
     <g id="text_8">
      <!-- 1.0 -->
      <g style="fill:#262626;" transform="translate(49.63625 446.429915)scale(0.14 -0.14)">
       <use xlink:href="#LiberationSans-49"/>
       <use x="55.615234" xlink:href="#LiberationSans-46"/>
       <use x="83.398438" xlink:href="#LiberationSans-48"/>
      </g>
     </g>
    </g>
    <g id="ytick_2">
     <g id="line2d_15">
      <path clip-path="url(#p366f8e2bd9)" d="M 76.09625 378.05282 
L 745.69625 378.05282 
" style="fill:none;stroke:#cccccc;stroke-linecap:round;"/>
     </g>
     <g id="line2d_16"/>
     <g id="text_9">
      <!-- 1.5 -->
      <g style="fill:#262626;" transform="translate(49.63625 383.125632)scale(0.14 -0.14)">
       <defs>
        <path d="M 51.421875 22.40625 
Q 51.421875 17.234375 49.859375 12.9375 
Q 48.296875 8.640625 45.21875 5.53125 
Q 42.140625 2.4375 37.578125 0.71875 
Q 33.015625 -0.984375 27 -0.984375 
Q 21.578125 -0.984375 17.546875 0.28125 
Q 13.53125 1.5625 10.734375 3.78125 
Q 7.953125 6 6.3125 8.984375 
Q 4.6875 11.96875 4 15.375 
L 12.890625 16.40625 
Q 13.421875 14.453125 14.390625 12.625 
Q 15.375 10.796875 17.0625 9.34375 
Q 18.75 7.90625 21.21875 7.046875 
Q 23.6875 6.203125 27.203125 6.203125 
Q 30.609375 6.203125 33.390625 7.25 
Q 36.1875 8.296875 38.15625 10.34375 
Q 40.140625 12.40625 41.203125 15.375 
Q 42.28125 18.359375 42.28125 22.21875 
Q 42.28125 25.390625 41.25 28.046875 
Q 40.234375 30.71875 38.328125 32.640625 
Q 36.421875 34.578125 33.65625 35.640625 
Q 30.90625 36.71875 27.390625 36.71875 
Q 25.203125 36.71875 23.34375 36.328125 
Q 21.484375 35.9375 19.890625 35.25 
Q 18.3125 34.578125 17.015625 33.671875 
Q 15.71875 32.765625 14.59375 31.78125 
L 6 31.78125 
L 8.296875 68.796875 
L 47.40625 68.796875 
L 47.40625 61.328125 
L 16.3125 61.328125 
L 14.984375 39.5 
Q 17.328125 41.3125 20.84375 42.59375 
Q 24.359375 43.890625 29.203125 43.890625 
Q 34.328125 43.890625 38.421875 42.328125 
Q 42.53125 40.765625 45.40625 37.90625 
Q 48.296875 35.0625 49.859375 31.109375 
Q 51.421875 27.15625 51.421875 22.40625 
z
" id="LiberationSans-53"/>
       </defs>
       <use xlink:href="#LiberationSans-49"/>
       <use x="55.615234" xlink:href="#LiberationSans-46"/>
       <use x="83.398438" xlink:href="#LiberationSans-53"/>
      </g>
     </g>
    </g>
    <g id="ytick_3">
     <g id="line2d_17">
      <path clip-path="url(#p366f8e2bd9)" d="M 76.09625 314.748537 
L 745.69625 314.748537 
" style="fill:none;stroke:#cccccc;stroke-linecap:round;"/>
     </g>
     <g id="line2d_18"/>
     <g id="text_10">
      <!-- 2.0 -->
      <g style="fill:#262626;" transform="translate(49.63625 319.82135)scale(0.14 -0.14)">
       <use xlink:href="#LiberationSans-50"/>
       <use x="55.615234" xlink:href="#LiberationSans-46"/>
       <use x="83.398438" xlink:href="#LiberationSans-48"/>
      </g>
     </g>
    </g>
    <g id="ytick_4">
     <g id="line2d_19">
      <path clip-path="url(#p366f8e2bd9)" d="M 76.09625 251.444255 
L 745.69625 251.444255 
" style="fill:none;stroke:#cccccc;stroke-linecap:round;"/>
     </g>
     <g id="line2d_20"/>
     <g id="text_11">
      <!-- 2.5 -->
      <g style="fill:#262626;" transform="translate(49.63625 256.517067)scale(0.14 -0.14)">
       <use xlink:href="#LiberationSans-50"/>
       <use x="55.615234" xlink:href="#LiberationSans-46"/>
       <use x="83.398438" xlink:href="#LiberationSans-53"/>
      </g>
     </g>
    </g>
    <g id="ytick_5">
     <g id="line2d_21">
      <path clip-path="url(#p366f8e2bd9)" d="M 76.09625 188.139972 
L 745.69625 188.139972 
" style="fill:none;stroke:#cccccc;stroke-linecap:round;"/>
     </g>
     <g id="line2d_22"/>
     <g id="text_12">
      <!-- 3.0 -->
      <g style="fill:#262626;" transform="translate(49.63625 193.212785)scale(0.14 -0.14)">
       <defs>
        <path d="M 51.21875 19 
Q 51.21875 14.265625 49.671875 10.546875 
Q 48.140625 6.84375 45.1875 4.265625 
Q 42.234375 1.703125 37.859375 0.359375 
Q 33.5 -0.984375 27.875 -0.984375 
Q 21.484375 -0.984375 17.109375 0.609375 
Q 12.75 2.203125 9.90625 4.8125 
Q 7.078125 7.421875 5.65625 10.765625 
Q 4.25 14.109375 3.8125 17.671875 
L 12.890625 18.5 
Q 13.28125 15.765625 14.328125 13.515625 
Q 15.375 11.28125 17.1875 9.671875 
Q 19 8.0625 21.625 7.171875 
Q 24.265625 6.296875 27.875 6.296875 
Q 34.515625 6.296875 38.296875 9.5625 
Q 42.09375 12.84375 42.09375 19.28125 
Q 42.09375 23.09375 40.40625 25.40625 
Q 38.71875 27.734375 36.203125 29.03125 
Q 33.6875 30.328125 30.734375 30.765625 
Q 27.78125 31.203125 25.296875 31.203125 
L 20.3125 31.203125 
L 20.3125 38.8125 
L 25.09375 38.8125 
Q 27.59375 38.8125 30.265625 39.328125 
Q 32.953125 39.84375 35.171875 41.1875 
Q 37.40625 42.53125 38.84375 44.828125 
Q 40.28125 47.125 40.28125 50.6875 
Q 40.28125 56.203125 37.03125 59.390625 
Q 33.796875 62.59375 27.390625 62.59375 
Q 21.578125 62.59375 17.984375 59.609375 
Q 14.40625 56.640625 13.8125 51.21875 
L 4.984375 51.90625 
Q 5.515625 56.453125 7.46875 59.8125 
Q 9.421875 63.1875 12.421875 65.40625 
Q 15.4375 67.625 19.28125 68.71875 
Q 23.140625 69.828125 27.484375 69.828125 
Q 33.25 69.828125 37.390625 68.375 
Q 41.546875 66.9375 44.1875 64.46875 
Q 46.828125 62.015625 48.0625 58.6875 
Q 49.3125 55.375 49.3125 51.609375 
Q 49.3125 48.578125 48.484375 45.9375 
Q 47.65625 43.3125 45.890625 41.203125 
Q 44.140625 39.109375 41.421875 37.59375 
Q 38.71875 36.078125 34.90625 35.296875 
L 34.90625 35.109375 
Q 39.0625 34.671875 42.140625 33.21875 
Q 45.21875 31.78125 47.21875 29.625 
Q 49.21875 27.484375 50.21875 24.75 
Q 51.21875 22.015625 51.21875 19 
z
" id="LiberationSans-51"/>
       </defs>
       <use xlink:href="#LiberationSans-51"/>
       <use x="55.615234" xlink:href="#LiberationSans-46"/>
       <use x="83.398438" xlink:href="#LiberationSans-48"/>
      </g>
     </g>
    </g>
    <g id="ytick_6">
     <g id="line2d_23">
      <path clip-path="url(#p366f8e2bd9)" d="M 76.09625 124.83569 
L 745.69625 124.83569 
" style="fill:none;stroke:#cccccc;stroke-linecap:round;"/>
     </g>
     <g id="line2d_24"/>
     <g id="text_13">
      <!-- 3.5 -->
      <g style="fill:#262626;" transform="translate(49.63625 129.908502)scale(0.14 -0.14)">
       <use xlink:href="#LiberationSans-51"/>
       <use x="55.615234" xlink:href="#LiberationSans-46"/>
       <use x="83.398438" xlink:href="#LiberationSans-53"/>
      </g>
     </g>
    </g>
    <g id="ytick_7">
     <g id="line2d_25">
      <path clip-path="url(#p366f8e2bd9)" d="M 76.09625 61.531407 
L 745.69625 61.531407 
" style="fill:none;stroke:#cccccc;stroke-linecap:round;"/>
     </g>
     <g id="line2d_26"/>
     <g id="text_14">
      <!-- 4.0 -->
      <g style="fill:#262626;" transform="translate(49.63625 66.60422)scale(0.14 -0.14)">
       <use xlink:href="#LiberationSans-52"/>
       <use x="55.615234" xlink:href="#LiberationSans-46"/>
       <use x="83.398438" xlink:href="#LiberationSans-48"/>
      </g>
     </g>
    </g>
    <g id="text_15">
     <!-- Lift -->
     <g style="fill:#262626;" transform="translate(7.2 240.364375)scale(0.16 -0.16)">
      <defs>
       <path d="M 6.6875 0 
L 6.6875 68.796875 
L 21.09375 68.796875 
L 21.09375 11.140625 
L 58.015625 11.140625 
L 58.015625 0 
z
" id="LiberationSans-Bold-76"/>
       <path d="M 6.984375 62.359375 
L 6.984375 72.46875 
L 20.703125 72.46875 
L 20.703125 62.359375 
z
M 6.984375 0 
L 6.984375 52.828125 
L 20.703125 52.828125 
L 20.703125 0 
z
" id="LiberationSans-Bold-105"/>
      </defs>
      <use xlink:href="#LiberationSans-Bold-76"/>
      <use x="61.083984" xlink:href="#LiberationSans-Bold-105"/>
      <use x="88.867188" xlink:href="#LiberationSans-Bold-102"/>
      <use x="122.167969" xlink:href="#LiberationSans-Bold-116"/>
     </g>
    </g>
   </g>
   <g id="line2d_27">
    <path clip-path="url(#p366f8e2bd9)" d="M 107.485238 400.810971 
L 567.603036 400.810971 
L 579.987159 405.183227 
L 593.323907 409.643019 
L 606.660655 413.864957 
L 620.950027 418.145532 
L 635.2394 422.194725 
L 650.481397 426.279375 
L 666.67602 430.375747 
L 682.870642 434.24191 
L 700.017889 438.105518 
L 715.259886 441.357102 
L 715.259886 441.357102 
" style="fill:none;stroke:#0272a2;stroke-linecap:round;stroke-width:3;"/>
   </g>
   <g id="line2d_28">
    <path clip-path="url(#p366f8e2bd9)" d="M 107.485238 46.011648 
L 254.189464 46.011648 
L 257.999963 59.142566 
L 261.810463 71.629023 
L 266.573587 86.400947 
L 271.336711 100.319002 
L 276.099835 113.455145 
L 280.862959 125.873465 
L 285.626084 137.631236 
L 290.389208 148.779797 
L 295.152332 159.365298 
L 299.915456 169.429347 
L 304.67858 179.009547 
L 309.441705 188.139972 
L 314.204829 196.851571 
L 318.967953 205.172515 
L 324.683702 214.678012 
L 330.399451 223.698122 
L 336.1152 232.269099 
L 341.830949 240.423671 
L 347.546698 248.191466 
L 353.262447 255.599362 
L 358.978196 262.671807 
L 364.693945 269.43108 
L 371.362319 276.948138 
L 378.030693 284.095937 
L 384.699067 290.901034 
L 391.367441 297.387497 
L 398.035815 303.577193 
L 404.704189 309.490035 
L 412.325187 315.931795 
L 419.946186 322.060278 
L 427.567185 327.897795 
L 435.188183 333.464586 
L 442.809182 338.779058 
L 451.382806 344.477068 
L 459.956429 349.898624 
L 468.530053 355.06337 
L 477.103676 359.98913 
L 486.629925 365.201574 
L 496.156173 370.159132 
L 505.682422 374.880051 
L 516.161295 379.819451 
L 526.640168 384.51244 
L 538.071666 389.372129 
L 549.503164 393.980994 
L 560.934662 398.357967 
L 573.318785 402.857763 
L 585.702908 407.124965 
L 599.039656 411.48042 
L 612.376404 415.606208 
L 626.665776 419.791907 
L 640.955149 423.753772 
L 656.197146 427.752716 
L 672.391769 431.765544 
L 688.586391 435.555073 
L 705.733638 439.344248 
L 715.259886 441.357102 
L 715.259886 441.357102 
" style="fill:none;stroke:#9fc377;stroke-linecap:round;stroke-width:3;"/>
   </g>
   <g id="line2d_29">
    <path clip-path="url(#p366f8e2bd9)" d="M 106.532614 441.357102 
L 715.259886 441.357102 
" style="fill:none;stroke:#111111;stroke-dasharray:7.4,3.2;stroke-dashoffset:0;stroke-width:2;"/>
   </g>
   <g id="patch_3">
    <path d="M 76.09625 461.124375 
L 76.09625 26.244375 
" style="fill:none;stroke:#cccccc;stroke-linecap:square;stroke-linejoin:miter;stroke-width:1.25;"/>
   </g>
   <g id="patch_4">
    <path d="M 745.69625 461.124375 
L 745.69625 26.244375 
" style="fill:none;stroke:#cccccc;stroke-linecap:square;stroke-linejoin:miter;stroke-width:1.25;"/>
   </g>
   <g id="patch_5">
    <path d="M 76.09625 461.124375 
L 745.69625 461.124375 
" style="fill:none;stroke:#cccccc;stroke-linecap:square;stroke-linejoin:miter;stroke-width:1.25;"/>
   </g>
   <g id="patch_6">
    <path d="M 76.09625 26.244375 
L 745.69625 26.244375 
" style="fill:none;stroke:#cccccc;stroke-linecap:square;stroke-linejoin:miter;stroke-width:1.25;"/>
   </g>
   <g id="text_16">
    <!-- Lift Chart for Customer Churn -->
    <g style="fill:#262626;" transform="translate(282.906406 20.244375)scale(0.18 -0.18)">
     <defs>
      <path d="M 20.515625 42.28125 
Q 23.296875 48.34375 27.484375 51.078125 
Q 31.6875 53.8125 37.5 53.8125 
Q 42.28125 53.8125 45.578125 52.25 
Q 48.875 50.6875 50.953125 47.953125 
Q 53.03125 45.21875 53.953125 41.5 
Q 54.890625 37.796875 54.890625 33.5 
L 54.890625 0 
L 41.21875 0 
L 41.21875 29.59375 
Q 41.21875 32.671875 40.71875 35.234375 
Q 40.234375 37.796875 39.109375 39.625 
Q 37.984375 41.453125 36.171875 42.46875 
Q 34.375 43.5 31.78125 43.5 
Q 29.296875 43.5 27.265625 42.40625 
Q 25.25 41.3125 23.78125 39.28125 
Q 22.3125 37.25 21.5 34.4375 
Q 20.703125 31.640625 20.703125 28.265625 
L 20.703125 0 
L 6.984375 0 
L 6.984375 72.46875 
L 20.703125 72.46875 
L 20.703125 52.6875 
Q 20.703125 51.125 20.65625 49.53125 
Q 20.609375 47.953125 20.53125 46.5625 
Q 20.453125 45.171875 20.40625 44.046875 
Q 20.359375 42.921875 20.3125 42.28125 
z
" id="LiberationSans-Bold-104"/>
     </defs>
     <use xlink:href="#LiberationSans-Bold-76"/>
     <use x="61.083984" xlink:href="#LiberationSans-Bold-105"/>
     <use x="88.867188" xlink:href="#LiberationSans-Bold-102"/>
     <use x="122.167969" xlink:href="#LiberationSans-Bold-116"/>
     <use x="155.46875" xlink:href="#LiberationSans-Bold-32"/>
     <use x="183.251953" xlink:href="#LiberationSans-Bold-67"/>
     <use x="255.46875" xlink:href="#LiberationSans-Bold-104"/>
     <use x="316.552734" xlink:href="#LiberationSans-Bold-97"/>
     <use x="372.167969" xlink:href="#LiberationSans-Bold-114"/>
     <use x="411.083984" xlink:href="#LiberationSans-Bold-116"/>
     <use x="444.384766" xlink:href="#LiberationSans-Bold-32"/>
     <use x="472.167969" xlink:href="#LiberationSans-Bold-102"/>
     <use x="505.46875" xlink:href="#LiberationSans-Bold-111"/>
     <use x="566.552734" xlink:href="#LiberationSans-Bold-114"/>
     <use x="605.46875" xlink:href="#LiberationSans-Bold-32"/>
     <use x="633.251953" xlink:href="#LiberationSans-Bold-67"/>
     <use x="705.46875" xlink:href="#LiberationSans-Bold-117"/>
     <use x="766.552734" xlink:href="#LiberationSans-Bold-115"/>
     <use x="822.167969" xlink:href="#LiberationSans-Bold-116"/>
     <use x="855.46875" xlink:href="#LiberationSans-Bold-111"/>
     <use x="916.552734" xlink:href="#LiberationSans-Bold-109"/>
     <use x="1005.46875" xlink:href="#LiberationSans-Bold-101"/>
     <use x="1061.083984" xlink:href="#LiberationSans-Bold-114"/>
     <use x="1100" xlink:href="#LiberationSans-Bold-32"/>
     <use x="1127.783203" xlink:href="#LiberationSans-Bold-67"/>
     <use x="1200" xlink:href="#LiberationSans-Bold-104"/>
     <use x="1261.083984" xlink:href="#LiberationSans-Bold-117"/>
     <use x="1322.167969" xlink:href="#LiberationSans-Bold-114"/>
     <use x="1361.083984" xlink:href="#LiberationSans-Bold-110"/>
    </g>
   </g>
   <g id="legend_1">
    <g id="line2d_30">
     <path d="M 656.461875 38.99125 
L 676.461875 38.99125 
" style="fill:none;stroke:#0272a2;stroke-linecap:round;stroke-width:3;"/>
    </g>
    <g id="line2d_31"/>
    <g id="text_17">
     <!-- Class False -->
     <g style="fill:#262626;" transform="translate(684.461875 42.49125)scale(0.1 -0.1)">
      <defs>
       <path d="M 38.671875 62.203125 
Q 32.8125 62.203125 28.296875 60.25 
Q 23.78125 58.296875 20.71875 54.6875 
Q 17.671875 51.078125 16.109375 46 
Q 14.546875 40.921875 14.546875 34.71875 
Q 14.546875 28.515625 16.234375 23.359375 
Q 17.921875 18.21875 21.0625 14.5 
Q 24.21875 10.796875 28.78125 8.734375 
Q 33.34375 6.6875 39.0625 6.6875 
Q 43.0625 6.6875 46.359375 7.734375 
Q 49.65625 8.796875 52.3125 10.6875 
Q 54.984375 12.59375 57.078125 15.203125 
Q 59.1875 17.828125 60.796875 21 
L 68.40625 17.1875 
Q 66.546875 13.328125 63.8125 10 
Q 61.078125 6.6875 57.390625 4.25 
Q 53.71875 1.8125 49.046875 0.40625 
Q 44.390625 -0.984375 38.625 -0.984375 
Q 30.28125 -0.984375 24 1.671875 
Q 17.71875 4.34375 13.5 9.109375 
Q 9.28125 13.875 7.171875 20.40625 
Q 5.078125 26.953125 5.078125 34.71875 
Q 5.078125 42.78125 7.296875 49.265625 
Q 9.515625 55.765625 13.78125 60.328125 
Q 18.0625 64.890625 24.3125 67.359375 
Q 30.5625 69.828125 38.578125 69.828125 
Q 49.5625 69.828125 56.9375 65.53125 
Q 64.3125 61.234375 67.78125 52.78125 
L 58.9375 49.859375 
Q 57.953125 52.296875 56.296875 54.515625 
Q 54.640625 56.734375 52.140625 58.4375 
Q 49.65625 60.15625 46.3125 61.171875 
Q 42.96875 62.203125 38.671875 62.203125 
z
" id="LiberationSans-67"/>
       <path d="M 6.734375 0 
L 6.734375 72.46875 
L 15.53125 72.46875 
L 15.53125 0 
z
" id="LiberationSans-108"/>
       <path d="M 20.21875 -0.984375 
Q 12.25 -0.984375 8.25 3.21875 
Q 4.25 7.421875 4.25 14.75 
Q 4.25 19.96875 6.21875 23.3125 
Q 8.203125 26.65625 11.390625 28.5625 
Q 14.59375 30.46875 18.6875 31.203125 
Q 22.796875 31.9375 27.046875 32.03125 
L 38.921875 32.234375 
L 38.921875 35.109375 
Q 38.921875 38.375 38.234375 40.671875 
Q 37.546875 42.96875 36.125 44.375 
Q 34.71875 45.796875 32.59375 46.453125 
Q 30.46875 47.125 27.59375 47.125 
Q 25.046875 47.125 23 46.75 
Q 20.953125 46.390625 19.4375 45.4375 
Q 17.921875 44.484375 16.984375 42.84375 
Q 16.0625 41.21875 15.765625 38.71875 
L 6.59375 39.546875 
Q 7.078125 42.671875 8.4375 45.28125 
Q 9.8125 47.90625 12.328125 49.796875 
Q 14.84375 51.703125 18.625 52.75 
Q 22.40625 53.8125 27.78125 53.8125 
Q 37.75 53.8125 42.765625 49.234375 
Q 47.796875 44.671875 47.796875 36.03125 
L 47.796875 13.28125 
Q 47.796875 9.375 48.828125 7.390625 
Q 49.859375 5.421875 52.734375 5.421875 
Q 53.46875 5.421875 54.203125 5.515625 
Q 54.9375 5.609375 55.609375 5.765625 
L 55.609375 0.296875 
Q 53.953125 -0.09375 52.3125 -0.28125 
Q 50.6875 -0.484375 48.828125 -0.484375 
Q 46.34375 -0.484375 44.5625 0.171875 
Q 42.78125 0.828125 41.65625 2.171875 
Q 40.53125 3.515625 39.9375 5.484375 
Q 39.359375 7.46875 39.203125 10.109375 
L 38.921875 10.109375 
Q 37.5 7.5625 35.8125 5.515625 
Q 34.125 3.46875 31.875 2.03125 
Q 29.640625 0.59375 26.78125 -0.1875 
Q 23.921875 -0.984375 20.21875 -0.984375 
z
M 22.21875 5.609375 
Q 26.421875 5.609375 29.5625 7.140625 
Q 32.71875 8.6875 34.78125 11.078125 
Q 36.859375 13.484375 37.890625 16.3125 
Q 38.921875 19.140625 38.921875 21.734375 
L 38.921875 26.078125 
L 29.296875 25.875 
Q 26.078125 25.828125 23.171875 25.40625 
Q 20.265625 25 18.0625 23.78125 
Q 15.875 22.5625 14.578125 20.359375 
Q 13.28125 18.171875 13.28125 14.59375 
Q 13.28125 10.296875 15.59375 7.953125 
Q 17.921875 5.609375 22.21875 5.609375 
z
" id="LiberationSans-97"/>
       <path d="M 46.390625 14.59375 
Q 46.390625 10.890625 44.9375 7.984375 
Q 43.5 5.078125 40.765625 3.09375 
Q 38.03125 1.125 34.046875 0.0625 
Q 30.078125 -0.984375 24.953125 -0.984375 
Q 20.359375 -0.984375 16.671875 -0.265625 
Q 12.984375 0.4375 10.203125 2 
Q 7.421875 3.5625 5.53125 6.125 
Q 3.65625 8.6875 2.78125 12.40625 
L 10.546875 13.921875 
Q 11.671875 9.671875 15.1875 7.6875 
Q 18.703125 5.71875 24.953125 5.71875 
Q 27.78125 5.71875 30.140625 6.109375 
Q 32.515625 6.5 34.21875 7.453125 
Q 35.9375 8.40625 36.890625 9.984375 
Q 37.84375 11.578125 37.84375 13.921875 
Q 37.84375 16.3125 36.71875 17.84375 
Q 35.59375 19.390625 33.59375 20.40625 
Q 31.59375 21.4375 28.734375 22.1875 
Q 25.875 22.953125 22.46875 23.875 
Q 19.28125 24.703125 16.15625 25.734375 
Q 13.03125 26.765625 10.515625 28.4375 
Q 8.015625 30.125 6.453125 32.609375 
Q 4.890625 35.109375 4.890625 38.875 
Q 4.890625 46.09375 10.03125 49.875 
Q 15.1875 53.65625 25.046875 53.65625 
Q 33.796875 53.65625 38.9375 50.578125 
Q 44.09375 47.515625 45.453125 40.71875 
L 37.546875 39.75 
Q 37.109375 41.796875 35.9375 43.1875 
Q 34.765625 44.578125 33.109375 45.4375 
Q 31.453125 46.296875 29.375 46.65625 
Q 27.296875 47.015625 25.046875 47.015625 
Q 19.09375 47.015625 16.25 45.203125 
Q 13.421875 43.40625 13.421875 39.75 
Q 13.421875 37.59375 14.46875 36.203125 
Q 15.53125 34.8125 17.40625 33.859375 
Q 19.28125 32.90625 21.921875 32.203125 
Q 24.5625 31.5 27.734375 30.71875 
Q 29.828125 30.171875 32.03125 29.5625 
Q 34.234375 28.953125 36.296875 28.09375 
Q 38.375 27.25 40.203125 26.09375 
Q 42.046875 24.953125 43.40625 23.34375 
Q 44.78125 21.734375 45.578125 19.578125 
Q 46.390625 17.4375 46.390625 14.59375 
z
" id="LiberationSans-115"/>
       <path id="LiberationSans-32"/>
       <path d="M 17.53125 61.1875 
L 17.53125 35.59375 
L 55.90625 35.59375 
L 55.90625 27.875 
L 17.53125 27.875 
L 17.53125 0 
L 8.203125 0 
L 8.203125 68.796875 
L 57.078125 68.796875 
L 57.078125 61.1875 
z
" id="LiberationSans-70"/>
       <path d="M 13.484375 24.5625 
Q 13.484375 20.40625 14.328125 16.90625 
Q 15.1875 13.421875 16.96875 10.90625 
Q 18.75 8.40625 21.53125 7 
Q 24.3125 5.609375 28.21875 5.609375 
Q 33.9375 5.609375 37.375 7.90625 
Q 40.828125 10.203125 42.046875 13.71875 
L 49.75 11.53125 
Q 48.921875 9.328125 47.4375 7.109375 
Q 45.953125 4.890625 43.453125 3.09375 
Q 40.96875 1.3125 37.234375 0.15625 
Q 33.5 -0.984375 28.21875 -0.984375 
Q 16.5 -0.984375 10.375 6 
Q 4.25 12.984375 4.25 26.765625 
Q 4.25 34.1875 6.09375 39.328125 
Q 7.953125 44.484375 11.171875 47.703125 
Q 14.40625 50.921875 18.703125 52.359375 
Q 23 53.8125 27.875 53.8125 
Q 34.515625 53.8125 38.984375 51.65625 
Q 43.453125 49.515625 46.15625 45.71875 
Q 48.875 41.9375 50.015625 36.8125 
Q 51.171875 31.6875 51.171875 25.734375 
L 51.171875 24.5625 
z
M 42.09375 31.296875 
Q 41.359375 39.65625 37.84375 43.484375 
Q 34.328125 47.3125 27.734375 47.3125 
Q 25.53125 47.3125 23.109375 46.609375 
Q 20.703125 45.90625 18.65625 44.09375 
Q 16.609375 42.28125 15.1875 39.171875 
Q 13.765625 36.078125 13.578125 31.296875 
z
" id="LiberationSans-101"/>
      </defs>
      <use xlink:href="#LiberationSans-67"/>
      <use x="72.216797" xlink:href="#LiberationSans-108"/>
      <use x="94.433594" xlink:href="#LiberationSans-97"/>
      <use x="150.048828" xlink:href="#LiberationSans-115"/>
      <use x="200.048828" xlink:href="#LiberationSans-115"/>
      <use x="250.048828" xlink:href="#LiberationSans-32"/>
      <use x="277.832031" xlink:href="#LiberationSans-70"/>
      <use x="338.916016" xlink:href="#LiberationSans-97"/>
      <use x="394.53125" xlink:href="#LiberationSans-108"/>
      <use x="416.748047" xlink:href="#LiberationSans-115"/>
      <use x="466.748047" xlink:href="#LiberationSans-101"/>
     </g>
    </g>
    <g id="line2d_32">
     <path d="M 656.461875 53.313125 
L 676.461875 53.313125 
" style="fill:none;stroke:#9fc377;stroke-linecap:round;stroke-width:3;"/>
    </g>
    <g id="line2d_33"/>
    <g id="text_18">
     <!-- Class True -->
     <g style="fill:#262626;" transform="translate(684.461875 56.813125)scale(0.1 -0.1)">
      <defs>
       <path d="M 35.15625 61.1875 
L 35.15625 0 
L 25.875 0 
L 25.875 61.1875 
L 2.25 61.1875 
L 2.25 68.796875 
L 58.796875 68.796875 
L 58.796875 61.1875 
z
" id="LiberationSans-84"/>
       <path d="M 6.9375 0 
L 6.9375 40.53125 
Q 6.9375 42.1875 6.90625 43.921875 
Q 6.890625 45.65625 6.828125 47.265625 
Q 6.78125 48.875 6.734375 50.28125 
Q 6.6875 51.703125 6.640625 52.828125 
L 14.9375 52.828125 
Q 14.984375 51.703125 15.0625 50.265625 
Q 15.140625 48.828125 15.203125 47.3125 
Q 15.28125 45.796875 15.296875 44.40625 
Q 15.328125 43.015625 15.328125 42.046875 
L 15.53125 42.046875 
Q 16.453125 45.0625 17.5 47.28125 
Q 18.5625 49.515625 19.96875 50.953125 
Q 21.390625 52.390625 23.34375 53.09375 
Q 25.296875 53.8125 28.078125 53.8125 
Q 29.15625 53.8125 30.125 53.640625 
Q 31.109375 53.46875 31.640625 53.328125 
L 31.640625 45.265625 
Q 30.765625 45.515625 29.59375 45.625 
Q 28.421875 45.75 26.953125 45.75 
Q 23.921875 45.75 21.796875 44.375 
Q 19.671875 43.015625 18.328125 40.59375 
Q 17 38.1875 16.359375 34.84375 
Q 15.71875 31.5 15.71875 27.546875 
L 15.71875 0 
z
" id="LiberationSans-114"/>
       <path d="M 15.328125 52.828125 
L 15.328125 19.34375 
Q 15.328125 15.484375 15.890625 12.890625 
Q 16.453125 10.296875 17.71875 8.703125 
Q 19 7.125 21.0625 6.46875 
Q 23.140625 5.8125 26.21875 5.8125 
Q 29.34375 5.8125 31.859375 6.90625 
Q 34.375 8.015625 36.15625 10.078125 
Q 37.9375 12.15625 38.90625 15.203125 
Q 39.890625 18.265625 39.890625 22.21875 
L 39.890625 52.828125 
L 48.6875 52.828125 
L 48.6875 11.28125 
Q 48.6875 9.625 48.703125 7.78125 
Q 48.734375 5.953125 48.78125 4.3125 
Q 48.828125 2.6875 48.875 1.515625 
Q 48.921875 0.34375 48.96875 0 
L 40.671875 0 
Q 40.625 0.25 40.578125 1.3125 
Q 40.53125 2.390625 40.453125 3.78125 
Q 40.375 5.171875 40.328125 6.609375 
Q 40.28125 8.0625 40.28125 9.03125 
L 40.140625 9.03125 
Q 38.875 6.734375 37.359375 4.875 
Q 35.84375 3.03125 33.84375 1.734375 
Q 31.84375 0.4375 29.25 -0.265625 
Q 26.65625 -0.984375 23.25 -0.984375 
Q 18.84375 -0.984375 15.671875 0.09375 
Q 12.5 1.171875 10.453125 3.421875 
Q 8.40625 5.671875 7.453125 9.1875 
Q 6.5 12.703125 6.5 17.625 
L 6.5 52.828125 
z
" id="LiberationSans-117"/>
      </defs>
      <use xlink:href="#LiberationSans-67"/>
      <use x="72.216797" xlink:href="#LiberationSans-108"/>
      <use x="94.433594" xlink:href="#LiberationSans-97"/>
      <use x="150.048828" xlink:href="#LiberationSans-115"/>
      <use x="200.048828" xlink:href="#LiberationSans-115"/>
      <use x="250.048828" xlink:href="#LiberationSans-32"/>
      <use x="276.082031" xlink:href="#LiberationSans-84"/>
      <use x="333.416016" xlink:href="#LiberationSans-114"/>
      <use x="366.716797" xlink:href="#LiberationSans-117"/>
      <use x="422.332031" xlink:href="#LiberationSans-101"/>
     </g>
    </g>
    <g id="line2d_34">
     <path d="M 656.461875 67.635 
L 676.461875 67.635 
" style="fill:none;stroke:#111111;stroke-dasharray:7.4,3.2;stroke-dashoffset:0;stroke-width:2;"/>
    </g>
    <g id="line2d_35"/>
    <g id="text_19">
     <!-- Baseline -->
     <g style="fill:#262626;" transform="translate(684.461875 71.135)scale(0.1 -0.1)">
      <defs>
       <path d="M 61.421875 19.390625 
Q 61.421875 14.15625 59.375 10.46875 
Q 57.328125 6.78125 53.859375 4.46875 
Q 50.390625 2.15625 45.796875 1.078125 
Q 41.21875 0 36.140625 0 
L 8.203125 0 
L 8.203125 68.796875 
L 33.203125 68.796875 
Q 38.921875 68.796875 43.40625 67.84375 
Q 47.90625 66.890625 51.03125 64.84375 
Q 54.15625 62.796875 55.78125 59.640625 
Q 57.421875 56.5 57.421875 52.09375 
Q 57.421875 49.21875 56.609375 46.671875 
Q 55.8125 44.140625 54.171875 42.0625 
Q 52.546875 39.984375 50.078125 38.5 
Q 47.609375 37.015625 44.34375 36.28125 
Q 48.484375 35.796875 51.6875 34.375 
Q 54.890625 32.953125 57.03125 30.75 
Q 59.1875 28.5625 60.296875 25.65625 
Q 61.421875 22.75 61.421875 19.390625 
z
M 48.046875 50.984375 
Q 48.046875 56.546875 44.234375 58.9375 
Q 40.4375 61.328125 33.203125 61.328125 
L 17.53125 61.328125 
L 17.53125 39.546875 
L 33.203125 39.546875 
Q 37.3125 39.546875 40.140625 40.34375 
Q 42.96875 41.15625 44.71875 42.640625 
Q 46.484375 44.140625 47.265625 46.234375 
Q 48.046875 48.34375 48.046875 50.984375 
z
M 52 20.125 
Q 52 23.390625 50.796875 25.6875 
Q 49.609375 27.984375 47.359375 29.4375 
Q 45.125 30.90625 41.96875 31.59375 
Q 38.8125 32.28125 34.90625 32.28125 
L 17.53125 32.28125 
L 17.53125 7.46875 
L 35.640625 7.46875 
Q 39.203125 7.46875 42.203125 8.046875 
Q 45.21875 8.640625 47.390625 10.109375 
Q 49.5625 11.578125 50.78125 14.015625 
Q 52 16.453125 52 20.125 
z
" id="LiberationSans-66"/>
       <path d="M 6.6875 64.0625 
L 6.6875 72.46875 
L 15.484375 72.46875 
L 15.484375 64.0625 
z
M 6.6875 0 
L 6.6875 52.828125 
L 15.484375 52.828125 
L 15.484375 0 
z
" id="LiberationSans-105"/>
       <path d="M 40.28125 0 
L 40.28125 33.5 
Q 40.28125 37.359375 39.71875 39.9375 
Q 39.15625 42.53125 37.890625 44.109375 
Q 36.625 45.703125 34.546875 46.359375 
Q 32.46875 47.015625 29.390625 47.015625 
Q 26.265625 47.015625 23.75 45.921875 
Q 21.234375 44.828125 19.453125 42.75 
Q 17.671875 40.671875 16.6875 37.625 
Q 15.71875 34.578125 15.71875 30.609375 
L 15.71875 0 
L 6.9375 0 
L 6.9375 41.546875 
Q 6.9375 43.21875 6.90625 45.046875 
Q 6.890625 46.875 6.828125 48.5 
Q 6.78125 50.140625 6.734375 51.3125 
Q 6.6875 52.484375 6.640625 52.828125 
L 14.9375 52.828125 
Q 14.984375 52.59375 15.03125 51.515625 
Q 15.09375 50.4375 15.15625 49.046875 
Q 15.234375 47.65625 15.28125 46.21875 
Q 15.328125 44.78125 15.328125 43.796875 
L 15.484375 43.796875 
Q 16.75 46.09375 18.265625 47.953125 
Q 19.78125 49.8125 21.78125 51.09375 
Q 23.78125 52.390625 26.359375 53.09375 
Q 28.953125 53.8125 32.375 53.8125 
Q 36.765625 53.8125 39.9375 52.734375 
Q 43.109375 51.65625 45.15625 49.40625 
Q 47.21875 47.171875 48.171875 43.625 
Q 49.125 40.09375 49.125 35.203125 
L 49.125 0 
z
" id="LiberationSans-110"/>
      </defs>
      <use xlink:href="#LiberationSans-66"/>
      <use x="66.699219" xlink:href="#LiberationSans-97"/>
      <use x="122.314453" xlink:href="#LiberationSans-115"/>
      <use x="172.314453" xlink:href="#LiberationSans-101"/>
      <use x="227.929688" xlink:href="#LiberationSans-108"/>
      <use x="250.146484" xlink:href="#LiberationSans-105"/>
      <use x="272.363281" xlink:href="#LiberationSans-110"/>
      <use x="327.978516" xlink:href="#LiberationSans-101"/>
     </g>
    </g>
   </g>
  </g>
 </g>
 <defs>
  <clipPath id="p366f8e2bd9">
   <rect height="434.88" width="669.6" x="76.09625" y="26.244375"/>
  </clipPath>
 </defs>
</svg>
